<svg width="427" height="847" viewBox="0 0 427 847" fill="none" xmlns="http://www.w3.org/2000/svg">
<g clip-path="url(#clip0_204_874)">
<rect width="1431" height="1089" transform="translate(-345)" fill="white"/>
<path d="M526.869 750.137C605.746 750.137 669.851 815.308 669.851 895.498C669.851 975.688 605.746 1040.86 526.869 1040.86C447.992 1040.86 383.888 975.688 383.888 895.498C383.888 815.443 447.992 750.137 526.869 750.137ZM526.869 1039.65C604.955 1039.65 668.532 975.018 668.532 895.632C668.532 816.247 604.955 751.612 526.869 751.612C448.784 751.612 385.207 816.247 385.207 895.632C385.207 975.018 448.784 1039.65 526.869 1039.65Z" fill="#1F1F1F" fill-opacity="0.05"/>
<path d="M152.533 1089C265.44 1089 356.848 995.937 356.848 881.284C356.848 766.497 265.309 673.568 152.533 673.568C39.7569 673.568 -51.7828 766.631 -51.7828 881.284C-51.7828 995.937 39.7569 1089 152.533 1089ZM152.533 728.414C235.499 728.414 302.769 796.803 302.769 881.15C302.769 965.497 235.499 1033.89 152.533 1033.89C69.5666 1033.89 2.29678 965.497 2.29678 881.15C2.29678 796.803 69.5666 728.414 152.533 728.414Z" fill="#1F1F1F" fill-opacity="0.05"/>
<path d="M393.913 465.45C520.406 465.45 622.894 361.257 622.894 232.658C622.894 104.059 520.406 0 393.913 0C267.419 0 164.931 104.193 164.931 232.792C164.931 361.391 267.551 465.45 393.913 465.45ZM393.913 61.6845C486.903 61.6845 562.219 138.254 562.219 232.792C562.219 327.33 486.903 403.9 393.913 403.9C300.922 403.9 225.606 327.33 225.606 232.792C225.606 138.254 300.922 61.6845 393.913 61.6845Z" fill="#1F1F1F" fill-opacity="0.05"/>
<path d="M-116.019 651.71C10.4747 651.71 112.962 547.517 112.962 418.918C112.962 290.32 10.4747 186.126 -116.019 186.126C-242.512 186.126 -345 290.32 -345 418.918C-345 547.517 -242.512 651.71 -116.019 651.71ZM-116.019 247.811C-23.0283 247.811 52.2875 324.38 52.2875 418.918C52.2875 513.457 -23.0283 590.026 -116.019 590.026C-209.009 590.026 -284.325 513.457 -284.325 418.918C-284.325 324.38 -209.009 247.811 -116.019 247.811Z" fill="#1F1F1F" fill-opacity="0.05"/>
<path d="M233.784 561.731C239.983 561.731 245.127 566.961 245.127 573.264C245.127 579.566 239.983 584.796 233.784 584.796C227.585 584.796 222.44 579.566 222.44 573.264C222.44 566.961 227.453 561.731 233.784 561.731ZM233.784 583.455C239.324 583.455 243.808 578.896 243.808 573.264C243.808 567.632 239.324 563.072 233.784 563.072C228.244 563.072 223.759 567.632 223.759 573.264C223.759 578.896 228.244 583.455 233.784 583.455Z" fill="#1F1F1F" fill-opacity="0.05"/>
<path d="M136.968 735.387C136.968 729.889 141.321 725.464 146.861 725.464C152.269 725.464 156.622 729.889 156.622 735.387C156.622 740.885 152.269 745.31 146.861 745.31C141.321 745.444 136.968 740.885 136.968 735.387Z" fill="#1F1F1F" fill-opacity="0.05"/>
<path d="M161.634 459.416C161.634 453.918 165.987 449.358 171.395 449.358C176.803 449.358 181.287 453.784 181.287 459.416C181.287 464.914 176.934 469.339 171.395 469.339C166.119 469.339 161.634 464.914 161.634 459.416Z" fill="#1F1F1F" fill-opacity="0.05"/>
</g>
<defs>
<clipPath id="clip0_204_874">
<rect width="1431" height="1089" fill="white" transform="translate(-345)"/>
</clipPath>
</defs>
</svg>
