<?xml version="1.0" encoding="UTF-8"?>
<svg xmlns="http://www.w3.org/2000/svg" xmlns:xlink="http://www.w3.org/1999/xlink" version="1.1" width="512" height="512" x="0" y="0" viewBox="0 0 24 24" style="enable-background:new 0 0 512 512" xml:space="preserve" class="">
  <g>
    <path d="M21 18.5h-9.55a2.5 2.5 0 0 0-4.9 0H3a.5.5 0 0 0 0 1h3.55a2.5 2.5 0 0 0 4.9 0H21a.5.5 0 0 0 0-1zm-12 2a1.5 1.5 0 1 1 1.5-1.5A1.502 1.502 0 0 1 9 20.5zm12-9h-2.55a2.5 2.5 0 0 0-4.9 0H3a.5.5 0 0 0 0 1h10.55a2.5 2.5 0 0 0 4.9 0H21a.5.5 0 0 0 0-1zm-5 2a1.5 1.5 0 1 1 1.5-1.5 1.502 1.502 0 0 1-1.5 1.5zm5-9h-7.55a2.5 2.5 0 0 0-4.9 0H3a.5.5 0 0 0 0 1h5.55a2.5 2.5 0 0 0 4.9 0H21a.5.5 0 0 0 0-1zm-10 2A1.5 1.5 0 1 1 12.5 5 1.502 1.502 0 0 1 11 6.5z" fill="#000000" opacity="1" data-original="#000000"/>
  </g>
</svg>
